<svg width="216.28750610351562px" height="99.2px" xmlns="http://www.w3.org/2000/svg" viewBox="141.8562469482422 25.4 216.28750610351562 99.2" style="background: rgb(255, 255, 255);" preserveAspectRatio="xMidYMid"><defs><filter id="editing-raise" x="-100%" y="-100%" width="300%" height="300%"><feFlood flood-color="#5194c2" result="flood-surface"></feFlood><feFlood flood-color="#0a5a99" result="flood-extrude"></feFlood><feMorphology operator="erode" in="SourceAlpha" radius="1" result="erode"></feMorphology><feConvolveMatrix in="erode" result="shadow" order="11,8" divisor="1" kernelMatrix="0 0 0 1 1 1 1 1 0 0 0 0 0 1 0 0 0 0 0 1 0 0 0 0 1 0 0 0 0 0 1 0 0 0 0 1 0 0 0 0 0 1 0 0 0 0 1 0 0 0 0 0 1 0 0 0 0 0 1 0 0 0 1 0 0 0 0 0 0 1 1 0 1 1 0 0 0 0 0 0 0 0 1 0 0 0 0 0"></feConvolveMatrix><feOffset dx="0" dy="4" in="shadow" result="offset"></feOffset><feGaussianBlur in="offset" stdDeviation="0.2" result="blur"></feGaussianBlur><feComposite operator="in" in="flood-extrude" in2="blur" result="extrude"></feComposite><feMorphology operator="erode" in="SourceAlpha" radius="1" result="erode2"></feMorphology><feConvolveMatrix in="erode2" result="out" order="4,4" divisor="1" kernelMatrix="0 1 1 0 1 0 0 1 1 0 0 1 0 1 1 0 "></feConvolveMatrix><feComposite operator="in" in="flood-surface" in2="out" result="text"></feComposite><feMerge><feMergeNode in="extrude"></feMergeNode><feMergeNode in="text"></feMergeNode></feMerge></filter></defs><g filter="url(#editing-raise)"><g transform="translate(177.93997979164124, 89.15999603271484)"><path d="M8.08 0.40L8.08 0.40L8.08 0.40Q4.88 0.40 3.28-1.28L3.28-1.28L3.28-1.28Q1.68-2.96 1.68-5.88L1.68-5.88L1.68-5.88Q1.68-9.16 3.84-10.92L3.84-10.92L3.84-10.92Q6-12.68 10.80-12.80L10.80-12.80L15.56-12.88L15.56-14.04L15.56-14.04Q15.56-16.64 14.46-17.74L14.46-17.74L14.46-17.74Q13.36-18.84 11-18.84L11-18.84L11-18.84Q8.64-18.84 7.58-18.04L7.58-18.04L7.58-18.04Q6.52-17.24 6.28-15.48L6.28-15.48L2.60-15.84L2.60-15.84Q3.52-21.52 11.08-21.52L11.08-21.52L11.08-21.52Q15.08-21.52 17.10-19.70L17.10-19.70L17.10-19.70Q19.12-17.88 19.12-14.40L19.12-14.40L19.12-5.32L19.12-5.32Q19.12-3.76 19.52-2.96L19.52-2.96L19.52-2.96Q19.92-2.16 21.08-2.16L21.08-2.16L21.08-2.16Q21.60-2.16 22.24-2.32L22.24-2.32L22.24-0.12L22.24-0.12Q20.88 0.20 19.52 0.20L19.52 0.20L19.52 0.20Q17.56 0.20 16.68-0.82L16.68-0.82L16.68-0.82Q15.80-1.84 15.68-4.04L15.68-4.04L15.56-4.04L15.56-4.04Q14.20-1.64 12.42-0.62L12.42-0.62L12.42-0.62Q10.64 0.40 8.08 0.40ZM8.88-2.24L8.88-2.24L8.88-2.24Q10.80-2.24 12.30-3.12L12.30-3.12L12.30-3.12Q13.80-4 14.68-5.54L14.68-5.54L14.68-5.54Q15.56-7.08 15.56-8.68L15.56-8.68L15.56-10.44L11.68-10.36L11.68-10.36Q9.20-10.32 7.94-9.84L7.94-9.84L7.94-9.84Q6.68-9.36 5.98-8.40L5.98-8.40L5.98-8.40Q5.28-7.44 5.28-5.84L5.28-5.84L5.28-5.84Q5.28-4.12 6.22-3.18L6.22-3.18L6.22-3.18Q7.16-2.24 8.88-2.24ZM33.04-2.76L33.04-0.16L33.04-0.16Q31.32 0.32 29.52 0.32L29.52 0.32L29.52 0.32Q25.28 0.32 25.28-4.48L25.28-4.48L25.28-18.56L22.84-18.56L22.84-21.12L25.40-21.12L26.44-25.84L28.80-25.84L28.80-21.12L32.72-21.12L32.72-18.56L28.80-18.56L28.80-5.24L28.80-5.24Q28.80-3.72 29.30-3.10L29.30-3.10L29.30-3.10Q29.80-2.48 31.04-2.48L31.04-2.48L31.04-2.48Q31.72-2.48 33.04-2.76L33.04-2.76ZM58.96 0L54.44 0L39.72-23.44L39.84-21.56L39.92-18.28L39.92 0L36.60 0L36.60-27.52L40.92-27.52L55.80-3.92L55.80-3.92Q55.60-7.76 55.60-9.48L55.60-9.48L55.60-27.52L58.96-27.52L58.96 0ZM87.16 0L65.48 0L65.48-27.52L86.36-27.52L86.36-24.48L69.20-24.48L69.20-15.64L85.20-15.64L85.20-12.64L69.20-12.64L69.20-3.04L87.16-3.04L87.16 0ZM112-3.04L112 0L90.08 0L90.08-2.80L106.84-24.48L91.52-24.48L91.52-27.52L111.08-27.52L111.08-24.80L94.32-3.04L112-3.04ZM142.44-13.88L142.44-13.88L142.44-13.88Q142.44-9.56 140.78-6.32L140.78-6.32L140.78-6.32Q139.12-3.08 136.04-1.34L136.04-1.34L136.04-1.34Q132.96 0.40 128.76 0.40L128.76 0.40L128.76 0.40Q124.52 0.40 121.44-1.32L121.44-1.32L121.44-1.32Q118.36-3.04 116.74-6.30L116.74-6.30L116.74-6.30Q115.12-9.56 115.12-13.88L115.12-13.88L115.12-13.88Q115.12-20.48 118.74-24.20L118.74-24.20L118.74-24.20Q122.36-27.92 128.80-27.92L128.80-27.92L128.80-27.92Q133-27.92 136.08-26.26L136.08-26.26L136.08-26.26Q139.16-24.60 140.80-21.42L140.80-21.42L140.80-21.42Q142.44-18.24 142.44-13.88ZM138.60-13.88L138.60-13.88L138.60-13.88Q138.60-19.04 136.04-21.96L136.04-21.96L136.04-21.96Q133.48-24.88 128.80-24.88L128.80-24.88L128.80-24.88Q124.08-24.88 121.50-22L121.50-22L121.50-22Q118.92-19.12 118.92-13.88L118.92-13.88L118.92-13.88Q118.92-8.72 121.52-5.68L121.52-5.68L121.52-5.68Q124.12-2.64 128.76-2.64L128.76-2.64L128.76-2.64Q133.52-2.64 136.06-5.58L136.06-5.58L136.06-5.58Q138.60-8.52 138.60-13.88Z"></path></g></g><style>text {
  font-size: 64px;
  font-family: Arial Black;
  dominant-baseline: central;
  text-anchor: middle;
}</style></svg>